P2
# CREATOR: XV Version 3.10a  Rev: 12/29/94
24 7
255
  0   0   0   0   0   0   0   0   0   0   0   0   0   0   0   0   0   0   0   0   0   0   0   0   
	0  51  51  51  51   0   0 119 119 119 119   0   0 187 187 187 187   0   0 254 254 254 254   0   
	0  51   0   0   0   0   0 119   0   0   0   0   0 187   0   0   0   0   0 254   0   0 254   0   
	0  51  51  51   0   0   0 119 119 119   0   0   0 187 187 187   0   0   0 254 254 254 254   0
	0  51   0   0   0   0   0 119   0   0   0   0   0 187   0   0   0   0   0 254   0   0   0   0   
	0  51   0   0   0   0   0 119 119 119 119   0   0 187 187 187 187   0   0 254   0   0   0   0   
	0   0   0   0   0   0   0   0   0   0   0   0   0   0   0   0   0   0   0   0   0   0   0   0 
